# xmcd CD database file
#
# Track frame offsets:
#	150
#	11711
#	25693
#	40260
#	65654
#	78345
#	92328
#	107679
#	121758
#	136100
#	151474
#	166861
#	181821
#	193550
#	207831
#	222815
#	234038
#	258865
#	285784
#
# Disc length: 3971 seconds
#
# Revision: 0
# Processed by: cddbd v1.5.2PL0 Copyright (c) Steve Scherf et al.
# Submitted via: CDex 1.70beta2
#
DISCID=e30f8113
DTITLE=Count Basie - Giants of Jazz 2
DYEAR=1900
DGENRE=Jazz
TTITLE0=19390213 Mx 24513-1 Love Me or Leave Me - Basie's Bad Boys (Basie)
TTITLE1=19390319 Mx W-24239-1 Rock-a-Bye Basie - Count Basie and His Orchestra (Basie)
TTITLE2=19390320 Mx W-24244-1 Jump for Me - Count Basie and His Orchestra (Basie)
TTITLE3=19390405 Mx W-24340-A W-24341-A Miss Thing (Parts 1 and 2) - Count Basie and His Orchestra (Basie)
TTITLE4=19390519 Mx WC-2596-C Nobody Knows - Count Basie and His Orchestra (Basie)
TTITLE5=19390804 Mx W-24979-A Song of the Islands - Count Basie and His Orchestra (Basie)
TTITLE6=19400207 Mx WCO-26495-B Gone with 'What' Wind-Benny Goodman Sextete (Basie)
TTITLE7=19410115 Mx CO 296512 2 Breakfast Feud - Benny Goodman and His Sextet featuring Count Basie (Basie)
TTITLE8=19410410 Mx C-3679-1 9 20 Special - Count Basie and His Orchestra
TTITLE9=19410410 Mx C-3681-1 Going to Chicago Blues - Count Basie and His Orchestra
TTITLE10=19411117 Mx CO 31768 1 Harvard Blues - Count Basie and His Orchestra
TTITLE11=19420724 Mx HCO-878-1 Cafe Society Blues - Count Basie and His All-American Rhythm Section (Basie)
TTITLE12=19441206 Mx CO-33956-1 Red Bank Boogie-Count Basie and His Orchestra
TTITLE13=19460206 Mx CO-35733-1 The King-Count Basie and His Orchestra
TTITLE14=19470520 Mx CO-35733-1 Basie's Basement-Count Basie  His Instrumentalists and Rhythm
TTITLE15=19500516 Mx CO-43263-1 Golden Bullet - Count Basie and His Orchestra
TTITLE16=19550726 Every Day (Parts 1 and 2) - Count Basie and His Orchestra
TTITLE17=19550811 Shoe shine Boy - The Jo Jones Special (Basie)
TTITLE18=19571021 Kid From Red Bank - Count Basie and His Orchestra
EXTD=
EXTT0=
EXTT1=
EXTT2=
EXTT3=
EXTT4=
EXTT5=
EXTT6=
EXTT7=
EXTT8=
EXTT9=
EXTT10=
EXTT11=
EXTT12=
EXTT13=
EXTT14=
EXTT15=
EXTT16=
EXTT17=
EXTT18=
PLAYORDER=
